<svg width="32" height="40" viewBox="0 0 32 40" fill="none" xmlns="http://www.w3.org/2000/svg">
<g opacity="0.7">
<path d="M5.965 18.364L4.701 34.737C4.63608 35.5788 4.9253 36.4095 5.49897 37.0289C6.07264 37.6483 6.87873 38.0003 7.723 38V38C8.56726 38.0003 9.37335 37.6483 9.94702 37.0289C10.5207 36.4095 10.8099 35.5788 10.745 34.737L9.49 18.364" stroke="#707070" stroke-width="3"/>
<path d="M13.455 2.81799V15.091C13.455 16.8986 11.9896 18.364 10.182 18.364H5.273C3.46537 18.364 2 16.8986 2 15.091V2.81799" stroke="#707070" stroke-width="3" stroke-linecap="square"/>
<path d="M7 2.81799V12.636" stroke="#707070" stroke-width="3" stroke-linecap="square"/>
<path d="M2 12H13.455" stroke="#707070" stroke-width="3"/>
<path d="M24.909 24.909L24.269 35.142C24.2226 35.8828 24.4845 36.6099 24.9925 37.1511C25.5006 37.6923 26.2097 37.9995 26.952 38V38C27.6946 38.0001 28.4043 37.6931 28.9128 37.1519C29.4213 36.6106 29.6834 35.8832 29.637 35.142L29 24.909" stroke="#707070" stroke-width="3"/>
<path fill-rule="evenodd" clip-rule="evenodd" d="M29 24.909H20.818V10.182C20.818 5.66321 24.4812 2 29 2V2V24.909Z" stroke="#707070" stroke-width="3" stroke-linecap="square"/>
</g>
</svg>
