<svg width="40" height="40" viewBox="0 0 40 40" fill="none" xmlns="http://www.w3.org/2000/svg">
<g opacity="0.7">
<path fill-rule="evenodd" clip-rule="evenodd" d="M38 20C38 18.1924 36.5346 16.727 34.727 16.727H32.662C32.358 15.5449 31.889 14.4114 31.269 13.36L32.729 11.9C33.9858 10.6182 33.9755 8.56325 32.706 7.29402C31.4365 6.0248 29.3816 6.01498 28.1 7.27202L26.64 8.73202C25.5888 8.11165 24.4553 7.6427 23.273 7.33902V5.27302C23.2937 4.09023 22.6745 2.98833 21.6535 2.39089C20.6325 1.79345 19.3685 1.79345 18.3475 2.39089C17.3265 2.98833 16.7073 4.09023 16.728 5.27302V7.33802C15.5459 7.64207 14.4124 8.111 13.361 8.73102L11.9 7.27202C10.6139 6.04389 8.5824 6.06745 7.32506 7.32506C6.06772 8.58267 6.04461 10.6141 7.27301 11.9L8.73301 13.36C8.11265 14.4113 7.64369 15.5448 7.34001 16.727H5.27301C3.48796 16.7582 2.05722 18.2142 2.05722 19.9995C2.05722 21.7848 3.48796 23.2408 5.27301 23.272H7.33801C7.64206 24.4542 8.111 25.5876 8.73101 26.639L7.27201 28.1C6.04389 29.3862 6.06744 31.4176 7.32505 32.675C8.58266 33.9323 10.6141 33.9554 11.9 32.727L13.36 31.267C14.4113 31.8874 15.5448 32.3563 16.727 32.66V34.727C16.7582 36.5121 18.2142 37.9428 19.9995 37.9428C21.7848 37.9428 23.2408 36.5121 23.272 34.727V32.662C24.4541 32.358 25.5876 31.889 26.639 31.269L28.099 32.729C29.3809 33.9858 31.4358 33.9755 32.705 32.706C33.9742 31.4365 33.9841 29.3816 32.727 28.1L31.267 26.64C31.8874 25.5888 32.3563 24.4553 32.66 23.273H34.727C36.5344 23.2725 37.9995 21.8074 38 20V20Z" stroke="#707070" stroke-width="3" stroke-linecap="round" stroke-linejoin="round"/>
<circle cx="20" cy="20" r="4.909" stroke="#707070" stroke-width="3" stroke-linecap="round" stroke-linejoin="round"/>
</g>
</svg>
