<svg width="210" height="248" viewBox="0 0 210 248" fill="none" xmlns="http://www.w3.org/2000/svg">
<circle opacity="0.14" cx="104.656" cy="104.874" r="104.235" fill="#FF9B70"/>
<path d="M126.797 58.209C125.797 56.3467 125.317 54.249 125.409 52.137C126.229 47.6657 129.771 44.1928 134.258 43.462C140.157 42.594 126.797 58.209 126.797 58.209Z" fill="#912909"/>
<path d="M129.92 61.159C129.92 61.159 126.971 63.588 126.103 70.701C125.628 75.383 125.745 80.1061 126.45 84.759C127.144 88.923 129.226 93.259 128.532 96.73C127.674 101.047 128.968 105.512 132.002 108.701C132.002 108.701 129.92 105.925 131.135 101.241C131.482 99.68 133.217 96.904 132.349 92.566C131.482 88.055 129.226 83.366 129.92 80.595C130.787 77.819 131.481 75.395 130.787 72.788C130.093 70.181 130.787 63.588 131.481 63.072C132.175 62.378 130.787 62.378 130.787 62.378L129.92 61.159Z" fill="#912909"/>
<path d="M128.012 61.159C127.816 61.525 127.779 61.9557 127.91 62.3496C128.041 62.7436 128.329 63.0661 128.706 63.241L130.267 64.108C130.633 64.3044 131.064 64.3412 131.458 64.2099C131.852 64.0786 132.174 63.7907 132.349 63.414C132.545 63.0481 132.582 62.6174 132.451 62.2234C132.32 61.8294 132.032 61.507 131.655 61.332L130.094 60.465C129.726 60.2807 129.3 60.2503 128.909 60.3805C128.519 60.5107 128.196 60.7907 128.012 61.159Z" fill="#93A100"/>
<path d="M127.318 53.351C128.185 48.315 130.618 43.115 137.728 43.115C143.654 43.0428 148.674 47.4637 149.352 53.351C149.545 55.8703 149.251 58.4032 148.485 60.811C148.138 61.678 144.842 63.76 144.148 66.363C143.454 68.966 127.318 53.351 127.318 53.351Z" fill="#912909"/>
<path d="M145.015 106.267C145.015 106.267 141.545 111.992 141.545 114.248C141.567 116.405 141.799 118.555 142.239 120.667L123.154 127.608C123.154 127.608 122.981 117.198 122.807 112.683C122.634 108.349 121.766 105.053 121.766 102.45C121.593 100.022 145.188 103.144 145.015 106.267Z" fill="#F09F5B"/>
<path d="M125.93 127.608C125.93 127.608 132.696 125.353 135.472 124.308C138.248 123.097 144.494 121.189 144.494 121.189C146.402 123.965 146.402 125.179 148.484 131.078C150.566 136.977 147.617 143.396 145.708 145.652C143.799 147.908 145.188 151.552 145.535 155.541C145.882 159.358 142.586 170.115 142.065 174.799C141.891 178.099 143.626 184.168 143.973 187.117C144.95 191.745 145.008 196.519 144.146 201.17C142.932 207.763 139.635 222.857 140.846 228.582C142.057 234.307 141.713 233.093 141.713 233.093C141.713 233.093 137.202 236.042 135.12 235.522C134.6 235.513 134.109 235.278 133.776 234.878C133.443 234.478 133.3 233.953 133.385 233.44C133.385 233.44 135.814 214.355 132.865 197.179C129.916 180.003 128.359 183.821 129.053 174.626V174.279C128.015 167.618 127.436 160.893 127.318 154.153C127.145 144.264 127.491 142.182 126.624 138.885C125.757 135.242 126.103 133.16 125.93 127.608Z" fill="#F09F5B"/>
<path d="M129.057 174.626V174.279C128.018 167.618 127.437 160.893 127.318 154.153C127.145 144.264 127.491 142.182 126.624 138.885C125.757 135.242 126.104 132.985 125.757 127.608C125.757 127.608 132.523 125.353 135.299 124.308C137.299 123.446 139.216 122.402 141.025 121.189C142.933 123.965 146.577 125.179 148.659 131.078C150.741 136.977 147.792 143.396 145.883 145.652C143.974 147.908 145.363 151.552 145.709 155.541C146.056 159.358 142.76 170.115 142.239 174.799C142.066 178.099 143.8 184.168 144.147 187.117C145.012 191.344 145.129 195.689 144.494 199.956C143.453 200.303 138.248 202.211 133.394 199.956C133.22 199.089 133.047 198.048 132.874 197.18C129.921 180.004 128.533 183.648 129.057 174.626Z" fill="#4EB6F2"/>
<path d="M129.057 174.626V174.279C128.018 167.618 127.437 160.893 127.318 154.153C127.145 144.264 127.491 142.182 126.624 138.885C125.757 135.242 126.104 132.985 125.757 127.608C125.757 127.608 132.523 125.353 135.299 124.308C137.299 123.446 139.216 122.402 141.025 121.189C142.933 123.965 146.577 125.179 148.659 131.078C150.741 136.977 147.792 143.396 145.883 145.652C143.974 147.908 145.363 151.552 145.709 155.541C146.056 159.358 142.76 170.115 142.239 174.799C142.066 178.099 143.8 184.168 144.147 187.117C145.012 191.344 145.129 195.689 144.494 199.956C143.453 200.303 138.248 202.211 133.394 199.956C133.22 199.089 133.047 198.048 132.874 197.18C129.921 180.004 128.533 183.648 129.057 174.626Z" fill="#F09F5B"/>
<path d="M134.432 231.533C135.646 232.574 136.687 234.133 138.596 233.615C140.505 233.097 141.719 230.839 142.239 232.227C142.759 233.615 145.188 237.258 144.494 239.34C144.837 239.788 144.904 240.389 144.667 240.901C144.32 241.942 141.891 242.289 138.595 242.462C137.035 242.375 135.471 242.375 133.911 242.462C130.962 242.809 127.492 243.676 125.236 243.676C122.46 243.676 120.205 242.982 119.858 241.594C119.511 240.38 119.164 239.859 121.766 239.339C124.195 238.819 127.666 236.216 128.879 235.522C130.157 234.624 131.322 233.575 132.349 232.399C133.391 231.364 133.911 231.186 134.432 231.533Z" fill="#B6CDE9"/>
<path d="M134.432 231.533C135.646 232.574 136.687 234.133 138.596 233.615C140.505 233.097 141.719 230.839 142.239 232.227C142.759 233.615 145.188 237.258 144.494 239.34C144.837 239.788 144.904 240.389 144.667 240.901C144.32 241.942 141.891 242.289 138.595 242.462C137.035 242.375 135.471 242.375 133.911 242.462C130.962 242.809 127.492 243.676 125.236 243.676C122.46 243.676 120.205 242.982 119.858 241.594C119.511 240.38 119.164 239.859 121.766 239.339C124.195 238.819 127.666 236.216 128.879 235.522C130.157 234.624 131.322 233.575 132.349 232.399C133.391 231.364 133.911 231.186 134.432 231.533Z" fill="#CC3913"/>
<path d="M123.154 127.088C123.154 127.088 130.094 124.833 132.87 123.618C135.646 122.403 142.07 120.495 142.07 120.495C143.978 123.271 146.928 124.485 149.183 130.558C151.265 136.63 147.622 143.05 145.713 145.479C143.805 147.734 143.805 151.551 144.152 155.542C144.499 159.533 140.335 170.463 139.988 175.321C139.815 178.791 141.549 184.863 142.07 187.986C143.045 192.731 143.104 197.619 142.244 202.386C141.03 209.152 137.733 224.42 138.944 230.319C140.155 236.218 139.811 235.003 139.811 235.003C139.811 235.003 135.127 237.952 133.045 237.432C132.512 237.371 132.027 237.097 131.7 236.672C131.373 236.247 131.232 235.708 131.31 235.177C131.31 235.177 133.739 215.745 130.79 198.222C127.665 180.695 126.277 184.515 126.797 175.146V174.795C125.78 168.013 125.143 161.18 124.889 154.327C124.716 144.264 125.062 142.182 124.195 138.712C123.154 135.069 123.501 132.813 123.154 127.088Z" fill="#FDB171"/>
<path d="M131.834 233.442C133.048 234.656 134.089 236.218 135.998 235.697C137.907 235.176 139.121 232.921 139.641 234.309C140.161 235.697 142.59 239.509 142.07 241.596C142.414 242.044 142.48 242.645 142.243 243.157C141.896 244.198 139.294 244.545 135.997 244.718C134.379 244.631 132.757 244.631 131.139 244.718C128.19 245.065 124.546 245.932 122.291 245.932C119.515 245.932 117.26 245.238 116.739 243.85C116.392 242.462 116.045 242.115 118.647 241.595C121.076 241.074 124.719 238.472 125.934 237.605C127.226 236.658 128.444 235.614 129.577 234.482C130.962 233.268 131.309 232.921 131.834 233.442Z" fill="#DE4922"/>
<path d="M144.668 62.547C144.282 64.4299 144.107 66.3502 144.148 68.272C143.628 68.619 143.454 69.313 142.76 69.66C140.231 71.2051 137.383 72.1544 134.432 72.436C134.432 72.436 134.952 71.742 135.646 70.701L144.668 62.547Z" fill="#F09F5B"/>
<path d="M147.271 61.159C147.271 61.159 150.22 63.588 151.088 70.701C151.562 75.383 151.446 80.1062 150.74 84.759C150.046 88.923 147.964 93.259 148.658 96.73C149.61 101.051 148.303 105.559 145.188 108.701C145.188 108.701 147.27 105.925 146.055 101.241C145.708 99.68 143.973 96.904 144.841 92.566C145.708 88.055 147.964 83.366 147.27 80.595C146.403 77.819 145.709 75.395 146.403 72.788C147.097 70.181 146.403 63.588 145.709 63.072C145.015 62.378 146.403 62.378 146.403 62.378L147.271 61.159Z" fill="#912909"/>
<path d="M149.179 61.159C149.375 61.5249 149.412 61.9556 149.281 62.3496C149.15 62.7436 148.862 63.066 148.485 63.241L146.924 64.108C146.558 64.3043 146.127 64.3412 145.733 64.2099C145.339 64.0785 145.017 63.7906 144.842 63.414C144.646 63.0481 144.609 62.6174 144.74 62.2234C144.871 61.8294 145.159 61.507 145.536 61.332L147.097 60.465C147.46 60.2547 147.896 60.2103 148.294 60.343C148.693 60.4757 149.015 60.7728 149.179 61.159Z" fill="#00265F"/>
<path d="M144.841 62.72C144.321 64.108 144.147 66.19 141.718 68.098C139.289 70.006 135.646 72.435 134.431 72.435C133.216 72.435 132.349 72.782 130.441 69.659C128.533 66.71 127.141 65.148 127.141 62.025C126.968 58.902 125.753 52.656 129.57 50.225C132.519 48.49 137.204 49.358 139.633 51.786C142.062 54.386 142.233 55.256 143.103 59.246C143.103 59.246 145.185 56.47 146.052 56.297C146.919 56.124 147.613 56.644 147.093 58.379C146.573 60.114 146.226 59.767 146.226 60.634C146.287 61.3663 146.104 62.0982 145.706 62.716C145.015 63.243 144.841 62.72 144.841 62.72Z" fill="#FDB171"/>
<path d="M131.482 49.361C131.482 49.361 136.34 58.032 143.106 59.424L145.706 51.617L139.463 46.932L131.482 49.361Z" fill="#912909"/>
<path d="M132.87 49.534C132.87 49.534 129.57 54.565 126.798 55.953C126.798 55.953 126.625 49.013 130.441 45.89L132.87 49.534Z" fill="#912909"/>
<path d="M123.835 133.311C123.418 133.172 123.293 132.719 123.168 132.127C123.001 131.361 123.168 131.161 123.168 131.161V128.29C123.168 128.29 124.168 127.112 127.921 125.301C131.674 123.49 136.511 121.575 139.763 121.157C140.952 120.98 142.16 120.98 143.349 121.157C144.433 122.55 146.059 124.813 146.059 124.813C146.059 124.813 144.016 124.743 136.719 127.564C128.546 130.733 125.002 133.275 124.21 133.344C124.086 133.385 123.95 133.373 123.835 133.311Z" fill="#FCB698"/>
<path d="M126.333 154.646C126.374 154.656 126.428 154.613 126.428 154.613C126.428 154.613 126.469 154.623 126.482 154.569L126.442 154.558C126.415 154.666 126.374 154.656 126.333 154.646Z" fill="#DE4922"/>
<path d="M122.951 132.459C123.06 132.543 124.125 132.418 124.291 132.46C125.081 132.599 129.526 129.521 138.751 126.545C146.99 123.897 147.55 126.546 147.55 126.546C147.55 126.546 153.989 136.86 144.886 147.149C144.886 147.149 144.321 149.163 144.066 150.533C144.066 150.533 145.69 149.13 140.274 150.532C135.551 151.763 128.357 154.004 126.524 154.579L124.797 154.579L124.797 151.965C124.797 151.965 123.703 144.011 123.499 137.882C123.386 135.904 122.656 134.163 122.951 132.459Z" fill="#DE4922"/>
<path d="M125.634 151.375C125.579 151.352 125.528 151.32 125.484 151.28C125.541 151.299 125.593 151.332 125.634 151.375Z" fill="#DE4922"/>
<path d="M144.668 62.373C144.148 65.149 143.454 70.873 146.056 73.824C148.658 76.775 152.649 75.212 156.466 82.672C160.283 90.132 161.844 93.773 164.619 98.46C167.394 103.147 169.997 108.87 168.609 110.778C167.396 112.687 148.832 125.005 146.576 126.393C144.494 127.781 140.157 130.383 138.248 129.516C136.339 128.649 134.605 127.781 133.564 127.955C132.523 128.129 127.318 128.822 127.145 127.955C127.145 127.088 128.706 127.088 129.4 126.741C130.094 126.567 131.829 125.7 131.482 125.527C130.397 125.269 129.294 125.095 128.182 125.007C127.662 125.007 125.406 126.395 124.882 125.874C124.358 125.353 124.188 125.007 125.402 124.313C126.616 123.619 127.145 123.273 127.145 123.273C127.145 123.273 124.196 124.314 123.845 123.447C123.494 122.58 123.845 122.059 125.233 121.539C126.274 121.192 127.488 120.151 128.703 120.498C129.581 120.612 130.449 120.786 131.303 121.018C131.303 121.018 129.742 119.977 129.395 119.804C129.048 119.457 128.007 119.631 127.14 119.804C126.273 119.977 125.232 119.978 125.058 119.631C124.884 119.284 124.719 118.586 126.277 118.065C127.287 117.748 128.361 117.689 129.4 117.891C130.614 118.065 132.176 118.932 133.043 119.105C133.91 119.278 137.38 120.146 137.554 120.146C137.728 120.146 137.728 119.799 137.207 118.411C136.686 117.023 136.513 115.811 137.034 115.288C137.555 114.765 137.901 115.635 138.769 117.196C139.463 118.757 140.851 122.054 141.718 121.707C144.35 120.06 146.845 118.204 149.178 116.155C150.913 114.42 155.25 107.133 157.506 106.439C153.901 103.622 151.091 99.9145 149.352 95.682L147.964 98.805L121.419 97.593C121.419 97.593 118.47 94.123 119.164 90.133C119.858 86.143 121.94 84.408 124.542 82.152C127.144 79.896 130.094 78.682 130.788 77.468C131.389 76.1377 132.639 75.217 134.088 75.039C134.477 73.5639 134.71 72.0519 134.782 70.528L144.668 62.373Z" fill="#FDB171"/>
<path d="M126.624 121.188C127.189 120.825 127.875 120.7 128.532 120.841C129.41 120.955 130.278 121.129 131.132 121.361C131.132 121.361 129.573 120.321 129.224 120.147C128.661 119.985 128.073 119.926 127.489 119.974L127.662 119.8C127.87 119.3 127.87 118.738 127.662 118.239L127.489 118.066C128.113 117.893 128.773 117.893 129.397 118.066C130.611 118.239 132.173 119.107 133.04 119.28C133.907 119.453 137.377 120.321 137.551 120.321C137.725 120.321 137.724 119.974 137.204 118.586C137.872 118.568 138.527 118.389 139.112 118.066C139.806 119.627 141.02 122.056 141.712 121.883C141.712 121.883 140.671 122.924 140.671 125.873C140.57 127.041 140.688 128.218 141.018 129.343C140.289 129.606 139.492 129.606 138.763 129.343C136.855 128.476 135.12 127.608 134.079 127.782C133.732 127.782 132.691 127.956 131.479 128.129C131.479 128.129 130.959 126.221 130.438 126.394C131.132 126.047 132.173 125.527 131.826 125.353C130.741 125.095 129.638 124.921 128.526 124.833H128.359C128.186 124.139 127.839 123.098 126.971 123.272L127.318 123.099H127.144C127.144 123.27 128.012 122.229 126.624 121.188Z" fill="#FB8262"/>
<path d="M145.019 106.268C141.064 105.136 136.985 104.495 132.874 104.36C127.149 104.36 122.638 103.146 121.597 102.452L121.419 97.593L147.964 98.807L145.019 106.268Z" fill="#F3937A"/>
<path d="M119.337 90.133C120.031 86.143 122.113 84.408 124.715 82.152C124.715 82.152 121.415 85.969 123.674 86.489C125.933 87.009 130.787 83.713 134.431 80.764C137.731 77.988 143.106 75.733 146.402 74.171C147.51 75.1305 148.812 75.8406 150.219 76.253C146.736 76.484 143.666 78.6199 142.238 81.805C139.115 88.051 143.799 94.991 148.484 97.42L147.444 100.371C147.444 100.371 135.473 99.328 131.656 99.155C128.88 98.981 121.593 97.593 121.593 97.593C121.593 97.593 118.473 94.123 119.337 90.133Z" fill="#DE4922"/>
<path d="M102.439 89.73C101.925 92.824 105.875 100.9 105.875 100.9C107.421 101.931 108.796 105.2 110.175 108.289C111.168 110.263 112.805 111.839 114.814 112.757C110.686 114.303 101.925 127.362 101.236 128.564C97.971 134.406 87.662 129.079 87.662 129.079C86.631 130.11 88.177 132.344 90.411 133.718C92.3547 134.528 94.3676 135.16 96.425 135.608C100.549 136.295 100.033 134.921 105.36 132.687C110.686 130.63 123.745 119.286 127.525 116.536C131.305 113.786 125.292 103.649 121.34 97.12C117.559 90.59 117.903 85.951 114.125 83.03L102.439 89.73Z" fill="#FDB171"/>
<path d="M101.924 143.341C102.954 148.964 103.643 154.645 103.986 160.352C104.33 168.252 94.192 167.225 94.192 167.225L84.741 155.713L92.13 146.606L101.924 143.341Z" fill="#FDB171"/>
<path d="M66.699 139.046C65.3845 145.745 64.4649 152.515 63.945 159.322C63.43 168.429 81.815 162.243 81.815 162.243L83.361 160.009L84.048 140.249L66.699 139.046Z" fill="#FDB171"/>
<path d="M64.808 77.875C71.166 79.075 77.18 75.641 77.351 72.205C77.522 68.769 77.523 69.456 77.523 69.456L84.052 69.628V143.513L73.052 146.95L66.866 139.39C66.866 139.39 70.818 121.69 66.522 117.224C62.226 112.758 60.68 103.478 59.133 98.324L64.808 77.875Z" fill="#FDB171"/>
<path d="M64.808 77.875C71.166 79.075 77.18 75.641 77.351 72.205C77.522 68.769 77.523 69.456 77.523 69.456L84.052 69.628V143.513L73.052 146.95L66.866 139.39C66.866 139.39 70.818 121.69 66.522 117.224C62.226 112.758 60.68 103.478 59.133 98.324L64.808 77.875Z" fill="#FDB171"/>
<path d="M68.245 93.34C68.76 96.433 61.887 100.9 61.887 100.9C60.341 101.931 58.966 105.2 57.587 108.289C56.5938 110.263 54.9575 111.839 52.948 112.757C57.072 114.303 67.553 129.768 68.584 130.799C69.615 131.83 70.302 128.05 70.302 128.05C68.756 126.16 71.161 124.098 72.02 123.239C72.879 122.38 74.597 122.724 76.659 125.129C78.549 127.535 75.459 132.346 72.535 134.923C69.786 137.5 67.208 135.61 61.882 133.548C56.561 131.314 44.189 119.286 40.236 116.536C36.456 113.787 42.47 103.649 46.422 97.119C50.202 90.59 49.859 85.95 53.639 83.029L68.245 93.34Z" fill="#FDB171"/>
<path d="M108.969 97.979C107.423 103.134 105.876 112.413 101.58 116.879C97.284 121.345 101.236 139.045 101.236 139.045L98.831 144.2L83.882 143.169V69.46L90.411 69.288C90.411 69.288 90.411 68.601 90.583 72.037C90.755 75.473 95.222 76.848 100.549 77.707L108.969 97.979Z" fill="#FDB171"/>
<path d="M87.833 74.095L90.41 71.518C90.238 68.597 90.238 69.284 90.238 69.284L83.88 69.454L77.351 69.282C77.351 69.282 77.351 68.595 77.179 71.516C77.9931 72.4187 78.8533 73.2788 79.756 74.093C80.787 75.293 82.505 74.78 83.021 74.78H84.74C85.256 74.954 86.974 75.297 87.833 74.095Z" fill="#F09F5B"/>
<path d="M95.05 56.396H94.878C95.05 55.709 95.05 54.85 95.222 54.162C95.737 50.382 96.768 39.557 84.053 39.557C71.338 39.557 72.369 50.382 72.884 54.162C73.056 54.849 73.056 55.708 73.228 56.396H73.056C71.166 55.021 70.994 58.802 71.681 60.004C72.1969 60.7207 72.5489 61.5421 72.712 62.41C73.056 63.269 73.571 63.441 73.912 63.269C73.912 63.784 74.084 64.3 74.084 64.644C74.256 66.706 79.067 70.658 80.098 71.861C81.129 73.064 82.847 72.548 83.363 72.548H85.081C85.596 72.548 87.315 73.063 88.346 71.861C89.377 70.659 94.188 66.534 94.36 64.644C94.3421 64.1794 94.4002 63.7149 94.532 63.269C94.876 63.441 95.391 63.269 95.732 62.41C95.8952 61.5421 96.2472 60.7208 96.763 60.004C97.112 58.802 96.94 54.85 95.05 56.396Z" fill="#FDB171"/>
<path d="M92.988 36.808C92.988 36.808 93.503 38.183 82.678 38.183H81.995C71.681 38.698 72.195 48.664 72.195 48.664C72.3114 51.2004 72.5984 53.7261 73.054 56.224L73.226 55.024C73.226 55.024 73.398 53.824 73.741 52.275V52.103C73.913 51.759 74.085 51.244 74.256 50.903C77.177 45.233 83.878 47.123 83.878 47.123C83.878 47.123 90.578 45.233 93.329 51.075C93.501 51.419 93.673 51.934 93.844 52.275C93.89 52.2739 93.9344 52.2916 93.9669 52.3241C93.9994 52.3566 94.0171 52.401 94.016 52.447C94.3207 53.3333 94.4942 54.2595 94.531 55.196L94.703 56.396C95.0873 54.8113 95.3741 53.2047 95.562 51.585C96.2685 46.5114 95.3684 41.3439 92.988 36.808V36.808Z" fill="#37120B"/>
<path d="M64.465 154.166C63.434 162.414 62.747 179.253 63.95 185.266C64.981 191.28 64.294 193.342 62.919 197.294C61.544 201.246 62.06 208.119 63.606 216.023C65.152 223.927 66.185 227.366 62.231 231.145C62.231 231.145 62.918 241.798 64.98 239.736C67.042 237.674 68.76 236.128 70.48 235.784C72.198 235.269 73.401 232.863 72.198 230.114C70.9838 227.241 70.6258 224.079 71.167 221.007C71.854 217.57 76.322 209.495 76.322 204.34C76.322 199.185 74.776 200.388 76.322 194.546C80.0564 182.009 82.4182 169.103 83.366 156.056L64.465 154.166Z" fill="#FDB171"/>
<path d="M103.298 154.166C104.329 162.414 105.016 179.253 103.813 185.266C102.782 191.28 103.469 193.342 104.844 197.294C106.219 201.246 105.703 208.119 104.157 216.023C102.611 223.927 103.813 226.333 104.844 231.488C105.703 236.127 104.672 241.626 102.61 239.736C100.548 237.674 98.83 236.128 97.11 235.784C95.392 235.269 94.189 232.863 95.392 230.114C96.6062 227.241 96.9642 224.079 96.423 221.007C95.736 217.57 91.268 209.495 91.268 204.34C91.268 199.185 92.814 200.388 91.268 194.546C87.534 182.009 85.1725 169.103 84.225 156.056L103.298 154.166Z" fill="#FDB171"/>
<path d="M49.688 89.387C49.688 89.387 53.296 76.5 63.95 76.5C71.3391 76.5 73.401 77.7 77.181 74.266C80.9611 70.832 77.181 83.029 77.181 83.029L59.654 95.916L49.688 89.387Z" fill="#FDB171"/>
<path d="M118.076 89.387C118.076 89.387 114.467 76.5 103.814 76.5C96.425 76.5 94.363 77.7 90.583 74.266C86.803 70.832 90.583 83.029 90.583 83.029L108.11 95.745L118.076 89.387Z" fill="#FDB171"/>
<path d="M66.699 139.046C64.0908 154.634 62.3126 170.35 61.372 186.127L80.789 187.327L84.054 161.209V140.421L66.699 139.046Z" fill="#DE4922"/>
<path d="M101.065 139.046C103.673 154.634 105.451 170.35 106.392 186.127L87.147 187.327L83.882 161.212V140.421L101.065 139.046Z" fill="#DE4922"/>
<path d="M97.113 229.943C95.567 225.991 94.707 222.554 100.893 222.554C106.048 222.554 105.193 226.162 103.642 229.943H97.113Z" fill="#F57F60"/>
<path d="M96.254 227.193C96.254 227.193 95.054 226.678 95.054 230.114C95.226 233.379 94.367 236.643 95.741 238.534C97.115 240.425 101.583 247.297 107.082 245.751C112.581 244.205 110.519 240.081 109.488 238.191C107.942 235.614 105.708 234.411 105.88 231.833C106.052 229.255 106.739 227.194 103.818 227.194L96.254 227.193Z" fill="#DE4922"/>
<path d="M70.651 229.943C72.197 225.991 73.057 222.554 66.871 222.554C61.716 222.554 62.571 226.162 64.122 229.943H70.651Z" fill="#F57F60"/>
<path d="M71.51 227.193C71.51 227.193 72.71 226.678 72.71 230.114C72.538 233.379 73.397 236.643 72.023 238.534C70.649 240.425 66.181 247.297 60.682 245.751C55.183 244.205 57.245 240.081 58.276 238.191C59.822 235.614 62.056 234.411 61.884 231.833C61.712 229.255 61.025 227.194 63.946 227.194L71.51 227.193Z" fill="#DE4922"/>
<path d="M63.777 135.609C64.636 135.953 65.152 146.609 64.808 148.324C64.464 150.039 67.557 148.152 68.073 142.654C68.589 137.156 68.245 137.499 69.104 138.015C69.963 138.531 71.51 140.592 72.541 140.077C73.572 139.562 73.572 138.359 71.854 136.64C69.277 134.234 69.792 133.203 66.871 129.595C63.95 125.987 62.231 127.877 62.231 127.877L63.777 135.609Z" fill="#FDB171"/>
<path d="M103.985 135.609C103.126 135.953 102.61 146.609 102.954 148.324C103.126 150.042 100.205 148.152 99.689 142.654C99.173 137.156 99.517 137.499 98.658 138.015C97.799 138.531 96.252 140.592 95.221 140.077C94.19 139.562 94.19 138.359 95.908 136.64C98.485 134.234 97.97 133.203 100.891 129.595C103.812 125.987 105.528 127.877 105.528 127.877L103.985 135.609Z" fill="#FDB171"/>
<path d="M102.162 112.611C99.0446 114.353 95.2896 114.529 92.023 113.086C90.28 112.294 89.013 111.343 87.904 110.868C86.6373 110.402 85.292 110.186 83.943 110.234C83.2001 110.202 82.4559 110.255 81.725 110.392L79.825 110.867C78.558 111.184 77.449 112.293 75.706 113.085C72.4535 114.61 68.6581 114.433 65.562 112.611C68.629 112.824 71.6833 112.047 74.275 110.393C75.5802 109.348 76.9565 108.395 78.394 107.541C79.2347 107.112 80.148 106.844 81.087 106.749C82.038 106.591 82.987 106.591 83.78 106.432C85.6849 106.417 87.5725 106.794 89.325 107.541C90.7973 108.34 92.1784 109.296 93.444 110.393C96.0143 112.1 99.0885 112.882 102.162 112.611Z" fill="#F09F5B"/>
<path d="M95.346 122.433C93.4477 123.463 91.2005 123.636 89.167 122.908C88.058 122.591 87.267 121.957 86.474 121.799C85.6423 121.606 84.7927 121.499 83.939 121.482C83.0814 121.421 82.2201 121.528 81.404 121.799C80.612 121.957 79.82 122.591 78.711 122.908C76.6776 123.636 74.4304 123.463 72.532 122.433C74.4026 122.445 76.2492 122.011 77.918 121.166C78.751 120.535 79.6548 120.003 80.611 119.582C81.6893 119.233 82.807 119.02 83.938 118.948C85.0789 118.928 86.2116 119.143 87.265 119.582C88.2023 120.04 89.1026 120.569 89.958 121.166C91.5931 122.102 93.4652 122.542 95.346 122.433Z" fill="#F09F5B"/>
<path d="M92.968 130.037C91.5001 130.95 89.7086 131.181 88.057 130.671C87.106 130.354 86.473 130.037 85.997 129.879C85.3736 129.741 84.7345 129.688 84.097 129.721C82.6752 129.767 81.2761 130.09 79.978 130.672C78.3368 131.283 76.4996 131.046 75.068 130.037C76.5276 129.979 77.947 129.542 79.187 128.77C79.8421 128.298 80.5306 127.875 81.247 127.503C82.9864 126.869 84.8936 126.869 86.633 127.503C87.3817 127.815 88.0769 128.242 88.693 128.77C89.9804 129.564 91.4559 130.001 92.968 130.037Z" fill="#F09F5B"/>
<path d="M91.702 136.533C90.444 137.377 88.8728 137.61 87.424 137.167C86.3889 136.656 85.2515 136.385 84.097 136.375C82.8915 136.382 81.7021 136.652 80.612 137.167C79.1646 137.623 77.588 137.389 76.335 136.533C77.5833 136.404 78.7805 135.969 79.82 135.266C80.3527 134.825 80.9382 134.453 81.563 134.157C82.3202 133.862 83.1228 133.701 83.935 133.681C84.7502 133.686 85.5568 133.847 86.311 134.156C86.9568 134.412 87.5482 134.789 88.054 135.265C89.1192 136.037 90.3879 136.478 91.702 136.533Z" fill="#F09F5B"/>
<path d="M59.81 85.87C62.7925 86.9042 65.2188 89.1189 66.52 91.995L66.931 93.12L67.205 94.12C67.3745 94.6846 67.6042 95.2294 67.89 95.745C68.365 96.7715 69.1256 97.6395 70.081 98.245C71.1358 98.8678 72.2961 99.2915 73.504 99.495L74.463 99.62H75.563C76.2477 99.6406 76.9328 99.5991 77.61 99.496C78.9529 99.3922 80.2592 99.0087 81.445 98.37C82.5742 97.6169 83.3614 96.4493 83.636 95.12C83.9274 96.6395 83.4091 98.2013 82.267 99.245C81.0774 100.359 79.612 101.136 78.022 101.495C77.2108 101.681 76.3868 101.806 75.557 101.87C75.146 101.87 74.735 101.995 74.457 101.995H73.229C71.4438 102.029 69.686 101.552 68.163 100.62C66.6312 99.7729 65.4624 98.3946 64.877 96.745C64.5249 96.0384 64.2933 95.2779 64.192 94.495L64.055 93.495C64.055 93.245 63.918 92.87 63.918 92.62C63.37 90.495 61.727 88.12 59.81 85.87Z" fill="#F09F5B"/>
<path d="M108.277 85.87C106.343 88.125 104.686 90.38 104.134 92.76C104.134 93.011 103.996 93.386 103.996 93.637L103.858 94.637C103.691 95.4067 103.46 96.161 103.167 96.892C102.482 98.493 101.326 99.8474 99.852 100.775C98.3139 101.71 96.5416 102.188 94.742 102.153H93.5C93.129 102.173 92.7572 102.131 92.4 102.028L89.914 101.652C88.3104 101.295 86.8308 100.517 85.627 99.399C84.5334 98.3203 84.0203 96.7844 84.246 95.265C84.5246 96.5995 85.3188 97.7701 86.456 98.522C87.6308 99.2179 88.9623 99.6056 90.327 99.649C91.0125 99.753 91.706 99.7948 92.399 99.774H93.499L94.466 99.649C95.6898 99.4688 96.8644 99.0425 97.919 98.396C98.8538 97.7592 99.6137 96.8978 100.129 95.891C100.405 95.391 100.543 94.764 100.82 94.263L101.096 93.263L101.51 92.136C102.821 89.2148 105.264 86.9527 108.277 85.87V85.87Z" fill="#F09F5B"/>
</svg>
