<svg width="40" height="40" viewBox="0 0 40 40" fill="none" xmlns="http://www.w3.org/2000/svg">
<g opacity="0.7">
<circle cx="30.35" cy="6.05" r="4.05" stroke="#707070" stroke-width="3" stroke-linecap="round" stroke-linejoin="round"/>
<path d="M20.9 10.1L13.77 18.526C13.0831 19.3381 12.7905 20.4124 12.9707 21.4607C13.1509 22.5089 13.7854 23.4239 14.704 23.96L20.941 27.6C21.1601 27.729 21.3145 27.9446 21.366 28.1936C21.4174 28.4426 21.3611 28.7018 21.211 28.907L14.601 38.007" stroke="#707070" stroke-width="3" stroke-linecap="round" stroke-linejoin="round"/>
<path d="M7.39999 12.8L10.64 7.94C10.8555 7.61587 11.2549 7.46699 11.63 7.571L20.9 10.1L28.1 15.5L32.24 22.948C32.4502 23.3265 32.9002 23.5017 33.311 23.365L38 21.8" stroke="#707070" stroke-width="3" stroke-linecap="round" stroke-linejoin="round"/>
<path d="M28.1 15.5L21.8 22.953" stroke="#707070" stroke-width="3" stroke-linecap="round" stroke-linejoin="round"/>
<path d="M11 27.2L2 38" stroke="#707070" stroke-width="3" stroke-linecap="round" stroke-linejoin="round"/>
</g>
</svg>
